# AST/ASF file generated using VICON BodyLanguage
# -----------------------------------------------
:version 1.10
:name VICON
:units
  mass 1.0
  length 0.45
  angle deg
:documentation
   .ast/.asf automatically generated from VICON data using
   VICON BodyBuilder and BodyLanguage model FoxedUp or BRILLIANT.MOD
:root
   order TX TY TZ RX RY RZ
   axis XYZ
   position 0 0 0  
   orientation 0 0 0 
:bonedata
  begin
     id 1 
     name lhipjoint
     direction 0.561145 -0.797705 0.220866 
     length 2.46425 
     axis 0 0 0  XYZ
  end
  begin
     id 2 
     name lfemur
     direction 0.34202 -0.939693 0  
     length 7.95556  
     axis 0 0 20  XYZ
    dof rx ry rz
    limits (-160.0 20.0)
           (-70.0 70.0)
           (-60.0 70.0)
  end
  begin
     id 3 
     name ltibia
     direction 0.34202 -0.939693 0   
     length 7.9832   
     axis 0 0 20   XYZ
    dof rx
    limits (-10.0 170.0)
  end
  begin
     id 4 
     name lfoot
     direction 0.0723927 -0.198897 0.977343   
     length 2.23085   
     axis -90 7.62852e-016 20   XYZ
    dof rx rz
    limits (-45.0 90.0)
           (-70.0 20.0)
  end
  begin
     id 5 
     name ltoes
     direction 1.53826e-011 -4.21988e-011 1   
     length 1.12127   
     axis -90 7.62852e-016 20   XYZ
    dof rx
    limits (-90.0 20.0)
  end
  begin
     id 6 
     name rhipjoint
     direction -0.610499 -0.763299 0.21134   
     length 2.57533  
     axis 0 0 0  XYZ 
  end
  begin
     id 7 
     name rfemur
     direction -0.34202 -0.939693 0   
     length 8.65257   
     axis 0 0 -20   XYZ
    dof rx ry rz
    limits (-160.0 20.0)
           (-70.0 70.0)
           (-70.0 60.0)
  end
  begin
     id 8 
     name rtibia
     direction -0.342021 -0.939692 0   
     length 7.37807   
     axis 0 0 -20   XYZ
    dof rx
    limits (-10.0 170.0)
 end
 begin
     id 9 
     name rfoot
     direction -0.0239304 -0.0543852 0.998233   
     length 1.87018  
     axis -90 -7.62852e-016 -20   XYZ
    dof rx rz
    limits (-45.0 90.0)
           (-20.0 70.0)
  end
  begin
     id 10 
     name rtoes
     direction -1.53584e-011 -4.2242e-011 1   
     length 0.951568   
     axis -90 -7.62852e-016 -20   XYZ
    dof rx
    limits (-90.0 20.0)
  end
  begin
     id 11 
     name lowerback
     direction 0.00322089 0.999033 0.0438587   
     length 2.07568   
     axis 0 0 0   XYZ
    dof rx ry rz
    limits (-20.0 45.0)
           (-30.0 30.0)
           (-30.0 30.0)
  end
  begin
     id 12 
     name upperback
     direction -0.00321932 0.999732 -0.0229403   
     length 2.06253   
     axis 0 0 0   XYZ
    dof rx ry rz
    limits (-20.0 45.0)
           (-30.0 30.0)
           (-30.0 30.0)
  end
  begin
     id 13 
     name thorax
     direction -0.00537537 0.998955 -0.0453918   
     length 2.06975   
     axis 0 0 0   XYZ
    dof rx ry rz
    limits (-20.0 45.0)
           (-30.0 30.0)
           (-30.0 30.0)
  end
  begin
     id 14 
     name lowerneck
     direction -0.00013604 0.994111 0.108363   
     length 1.50836   
     axis 0 0 0   XYZ
    dof rx ry rz
    limits (-20.0 45.0)
           (-30.0 30.0)
           (-30.0 30.0)
  end
  begin
     id 15 
     name upperneck
     direction 0.0397262 0.983859 -0.174482   
     length 1.53037   
     axis 0 0 0   XYZ
    dof rx ry rz
    limits (-20.0 45.0)
           (-30.0 30.0)
           (-30.0 30.0)
  end
  begin
     id 16
     name head
     direction 0.0109991 0.997082 -0.0755378  
     length 1.56928  
     axis 0 0 0   XYZ
    dof rx ry rz
    limits (-20.0 45.0)
           (-30.0 30.0)
           (-30.0 30.0)
  end
  begin
     id 17 
     name lclavicle
     direction 0.964749 0.254 -0.068874  
     length 3.26503  
     axis 0 0 0   XYZ
    dof ry rz
    limits (-20.0 10.0)
           (0.0 20.0)
  end
  begin
     id 18 
     name lhumerus
     direction 1 -4.48941e-011 -2.05079e-027   
     length 5.68236   
     axis 180 -30 -90   XYZ
    dof rx ry rz
    limits (-60.0 90.0)
           (-90.0 90.0)
           (-90.0 90.0)
  end
  begin
     id 19
     name lradius
     direction 1 -4.48956e-011 6.2882e-027   
     length 3.17112   
     axis 180 -30 -90   XYZ
    dof rx
    limits (-10.0 170.0)
  end
  begin
     id 20
     name lwrist
     direction 1 -4.49014e-011 1.73219e-026   
     length 1.58556   
     axis -1.04724e-014 90 90   XYZ
    dof ry
    limits (-180.0 0.0)
 end
  begin
     id 21 
     name lhand
     direction 1 -4.49312e-011 3.46438e-026   
     length 0.632691   
     axis -2.21057e-014 90 90   XYZ
    dof rx rz
    limits (-90.0 90.0)
           (-45.0 45.0)
  end
  begin
     id 22 
     name lfingers
     direction 1 -4.48894e-011 6.92876e-026   
     length 0.510091   
     axis -4.42114e-014 90 90   XYZ
    dof rx
    limits (0.0 90.0)
  end
  begin
     id 23
     name lthumb
     direction 0.707107 -6.34705e-011 0.707107   
     length 0.732392   
     axis -90 45 2.85299e-015   XYZ
    dof rx rz
    limits (-45.0 45.0)
           (-45.0 45.0)
  end
  begin
     id 24 
     name rclavicle
     direction -0.954374 0.280496 -0.102435   
     length 3.25419  
     axis 0 0 0   XYZ 
    dof ry rz
    limits (-10.0 20.0)
           (-20.0 0.0)
  end
  begin
     id 25 
     name rhumerus
     direction -1 -4.48994e-011 -1.07204e-017  
     length 5.8712   
     axis 180 30 90   XYZ
    dof rx ry rz
    limits (-90.0 60.0)
           (-90.0 90.0)
           (-90.0 90.0)
  end
  begin
     id 26 
     name rradius
     direction -1 -4.48972e-011 5.89292e-027   
     length 3.37589   
     axis 180 30 90   XYZ
    dof rx
    limits (-10.0 170.0)
  end
  begin
     id 27 
     name rwrist
     direction -1 -4.48942e-011 1.73219e-026   
     length 1.68794   
     axis -1.04724e-014 -90 -90   XYZ
    dof ry
    limits (-180.0 0.0)
  end
  begin
     id 28
     name rhand
     direction -1 -4.48514e-011 3.46438e-026   
     length 0.603257   
     axis -2.21057e-014 -90 -90   XYZ
    dof rx rz
    limits (-90.0 90.0)
           (-45.0 45.0)
  end
  begin
     id 29
     name rfingers
     direction -1 -4.50028e-011 6.92876e-026   
     length 0.486362   
     axis -4.42114e-014 -90 -90   XYZ
    dof rx
    limits (0.0 90.0)
  end
  begin
     id 30
     name rthumb
     direction -0.707107 -6.34926e-011 0.707107   
     length 0.698321   
     axis -90 -45 -2.85299e-015   XYZ
    dof rx rz
    limits (-45.0 45.0)
           (-45.0 45.0)
  end
:hierarchy
  begin
    root lhipjoint rhipjoint lowerback
    lhipjoint lfemur
    lfemur ltibia
    ltibia lfoot
    lfoot ltoes
    rhipjoint rfemur
    rfemur rtibia
    rtibia rfoot
    rfoot rtoes
    lowerback upperback
    upperback thorax
    thorax lowerneck lclavicle rclavicle
    lowerneck upperneck
    upperneck head
    lclavicle lhumerus
    lhumerus lradius
    lradius lwrist
    lwrist lhand lthumb
    lhand lfingers
    rclavicle rhumerus
    rhumerus rradius
    rradius rwrist
    rwrist rhand rthumb
    rhand rfingers
  end

#!OML:ASF I:\Segmentation\Patient Classification 1\Patient 1\Session 1\Patient1.ASF
:FULLY-SPECIFIED
:DEGREES
1
root 17.3866 18.0959 0.17894 -88.1261 -87.8338 101.641
lowerback -10.2994 0.514365 0.238228
upperback 1.16729 0.580872 0.960122
thorax 7.0106 0.269864 0.969792
lowerneck -14.4957 -1.22021 -5.18143
upperneck 19.9522 -0.875605 1.08973
head 8.65204 -0.760898 1.11704
rclavicle 1.39149e-015 7.95139e-016
rhumerus -34.8715 -13.608 -82.0038
rradius 38.0297
rwrist 14.7206
rhand -22.4846 31.9852
rfingers 7.12502
rthumb 3.9408 2.04187
lclavicle 1.39149e-015 7.95139e-016
lhumerus -26.3015 8.48882 76.4191
lradius 34.1871
lwrist 12.9821
lhand -13.0836 34.3524
lfingers 7.12502
lthumb 13.0126 63.9265
rfemur -28.3157 7.52234 14.6347
rtibia 40.9416
rfoot -11.0611 12.7358
rtoes 37.2958
lfemur -29.1974 1.82053 -23.3363
ltibia 40.0149
lfoot -22.863 0.874378
ltoes -5.96403
2
root 17.3744 18.1033 0.207219 -87.3075 -87.9169 100.758
lowerback -10.3368 0.531692 0.278384
upperback 1.15906 0.607352 0.844408
thorax 7.02439 0.287041 0.830033
lowerneck -14.621 -1.22154 -5.20874
upperneck 20.0875 -0.888826 1.20141
head 8.7217 -0.759532 1.15792
rclavicle -8.34896e-015 -3.18055e-015
rhumerus -34.9424 -13.3146 -82.2921
rradius 37.7082
rwrist 14.668
rhand -22.5276 32.2055
rfingers 7.12502
rthumb 3.89928 2.26142
lclavicle -8.34896e-015 -3.18055e-015
lhumerus -26.4622 8.44746 77.1426
lradius 33.7693
lwrist 12.8618
lhand -12.5575 33.8725
lfingers 7.12502
lthumb 13.5197 63.4136
rfemur -28.0901 7.53956 14.6329
rtibia 40.753
rfoot -11.1402 12.7045
rtoes 37.3954
lfemur -29.0057 1.86299 -23.3602
ltibia 39.8655
lfoot -22.8235 0.804748
ltoes -5.82642
3
root 17.3626 18.11 0.231654 -85.3242 -88.0304 98.7018
lowerback -10.3596 0.53882 0.263416
upperback 1.16514 0.623584 0.779055
thorax 7.04418 0.295907 0.772675
lowerneck -14.7909 -1.25401 -5.24242
upperneck 20.1983 -0.934189 1.28864
head 8.79258 -0.775115 1.18772
rclavicle -4.67144e-015 -1.19271e-014
rhumerus -34.9153 -12.8006 -82.607
rradius 37.3424
rwrist 14.5097
rhand -22.5291 32.504
rfingers 7.12502
rthumb 3.89781 2.55989
lclavicle -4.67144e-015 -1.19271e-014
lhumerus -26.5877 8.35388 77.897
lradius 33.4151
lwrist 12.7323
lhand -12.3187 33.5839
lfingers 7.12502
lthumb 13.7498 63.1096
rfemur -27.8463 7.64184 14.6696
rtibia 40.5554
rfoot -11.3435 12.6275
rtoes 37.3528
lfemur -28.8359 1.75089 -23.3058
ltibia 39.7818
lfoot -22.8757 0.770668
ltoes -5.37546
4
root 17.3521 18.1161 0.255438 -82.6377 -88.1316 95.9547
lowerback -10.4101 0.497375 0.135537
upperback 1.14077 0.582145 0.808926
thorax 7.04587 0.269928 0.869849
lowerneck -14.7988 -1.24883 -5.27765
upperneck 20.2484 -0.911906 1.25498
head 8.81065 -0.772358 1.18482
rclavicle 1.68967e-015 9.54166e-015
rhumerus -34.8934 -11.8414 -82.9087
rradius 36.919
rwrist 14.3817
rhand -22.6924 32.9461
rfingers 7.12502
rthumb 3.74018 2.99914
lclavicle 1.68967e-015 9.54166e-015
lhumerus -26.8797 8.40392 78.7067
lradius 33.2259
lwrist 12.3207
lhand -12.21 33.5382
lfingers 7.12502
lthumb 13.8546 63.0568
rfemur -27.6261 7.78627 14.6951
rtibia 40.3769
rfoot -11.5805 12.5593
rtoes 37.2534
lfemur -28.6707 1.53919 -23.2437
ltibia 39.6891
lfoot -22.9842 0.8586
ltoes -4.87189
5
root 17.3445 18.1186 0.281719 -81.5277 -88.1991 94.8294
lowerback -10.4735 0.470515 0.0532007
upperback 1.09008 0.557383 0.796957
thorax 7.02771 0.254864 0.89988
lowerneck -14.8692 -1.22449 -5.26992
upperneck 20.4203 -0.876136 1.23924
head 8.88112 -0.760715 1.18268
rclavicle 1.98785e-016 2.38542e-015
rhumerus -34.9383 -10.8748 -83.239
rradius 36.6187
rwrist 14.3743
rhand -22.7508 33.1138
rfingers 7.12502
rthumb 3.68377 3.16588
lclavicle 1.98785e-016 2.38542e-015
lhumerus -27.2086 8.42884 79.4616
lradius 33.1204
lwrist 11.9829
lhand -12.0288 33.4196
lfingers 7.12502
lthumb 14.0292 62.9261
rfemur -27.4958 7.96135 14.6574
rtibia 40.2127
rfoot -11.7838 12.5157
rtoes 37.1338
lfemur -28.5804 1.32959 -23.2369
ltibia 39.6043
lfoot -23.0956 0.969945
ltoes -4.48926
6
root 17.3352 18.1173 0.306741 -82.1979 -88.2127 95.5289
lowerback -10.5962 0.495768 -0.0172351
upperback 1.03377 0.606157 0.706013
thorax 7.03717 0.277862 0.852753
lowerneck -14.9378 -1.23659 -5.24746
upperneck 20.5687 -0.910577 1.29862
head 8.9457 -0.771828 1.19531
rclavicle 3.97569e-015 -1.86858e-014
rhumerus -35.0466 -10.2266 -83.551
rradius 36.5426
rwrist 14.4346
rhand -22.4844 32.8787
rfingers 7.12502
rthumb 3.94098 2.93542
lclavicle 3.97569e-015 -1.86858e-014
lhumerus -27.5438 8.08574 80.2168
lradius 33.1761
lwrist 12.1332
lhand -12.0346 33.2194
lfingers 7.12502
lthumb 14.0236 62.7264
rfemur -27.4417 8.08009 14.5603
rtibia 40.0614
rfoot -11.8826 12.4495
rtoes 37.1613
lfemur -28.553 1.23301 -23.3141
ltibia 39.5196
lfoot -23.1863 1.04411
ltoes -4.73418
7
root 17.3235 18.1182 0.327679 -79.8427 -88.2048 93.1693
lowerback -10.7452 0.506747 -0.152482
upperback 0.981548 0.644573 0.613295
thorax 7.06546 0.293222 0.839046
lowerneck -14.7817 -1.26619 -5.13682
upperneck 20.5027 -0.984257 1.27839
head 8.89594 -0.799541 1.16135
rclavicle 5.66536e-015 1.39149e-014
rhumerus -35.1622 -9.9097 -83.7312
rradius 36.436
rwrist 14.6689
rhand -22.0748 32.8586
rfingers 7.12502
rthumb 4.33656 2.92304
lclavicle 5.66536e-015 1.39149e-014
lhumerus -27.92 7.68227 80.9297
lradius 33.2841
lwrist 12.1813
lhand -11.8029 33.0908
lfingers 7.12502
lthumb 14.2469 62.5821
rfemur -27.3121 8.19414 14.4679
rtibia 39.9235
rfoot -12.0463 12.3815
rtoes 37.1927
lfemur -28.4762 1.21613 -23.4046
ltibia 39.4351
lfoot -23.2024 1.04685
ltoes -5.28034
8
root 17.3138 18.1226 0.346952 -74.2414 -88.2537 87.5383
lowerback -10.8284 0.496413 -0.220384
upperback 0.915615 0.645377 0.528829
thorax 7.04277 0.292795 0.788871
lowerneck -14.6701 -1.28404 -4.95608
upperneck 20.5088 -1.05587 1.25304
head 8.87827 -0.822825 1.1144
rclavicle -4.96962e-016 -1.11319e-014
rhumerus -35.1832 -9.71498 -83.904
rradius 36.1645
rwrist 15.0464
rhand -21.8654 33.0043
rfingers 7.12502
rthumb 4.53876 3.07289
lclavicle -4.96962e-016 -1.11319e-014
lhumerus -28.2555 7.45836 81.5251
lradius 33.2616
lwrist 11.9673
lhand -11.5074 32.9012
lfingers 7.12502
lthumb 14.5316 62.3723
rfemur -27.095 8.40666 14.462
rtibia 39.7956
rfoot -12.4155 12.3529
rtoes 37.257
lfemur -28.3602 1.11512 -23.3815
ltibia 39.3521
lfoot -23.1884 0.925082
ltoes -5.05429
9
root 17.3051 18.1253 0.367263 -69.1968 -88.3311 82.5087
lowerback -10.9102 0.470737 -0.223879
upperback 0.839658 0.614577 0.477627
thorax 7.00941 0.278593 0.73201
lowerneck -14.7308 -1.25673 -4.94522
upperneck 20.6305 -1.04513 1.36635
head 8.93081 -0.807066 1.15263
rclavicle 0 5.1684e-015
rhumerus -35.1111 -9.31508 -84.1236
rradius 35.8641
rwrist 15.3542
rhand -21.9366 33.1776
rfingers 7.12502
rthumb 4.47001 3.24477
lclavicle 0 5.1684e-015
lhumerus -28.6088 7.30845 82.1273
lradius 33.323
lwrist 11.9236
lhand -11.4683 32.7751
lfingers 7.12502
lthumb 14.5693 62.2434
rfemur -26.9313 8.43105 14.521
rtibia 39.6708
rfoot -12.6232 12.4035
rtoes 37.495
lfemur -28.3053 0.961436 -23.3168
ltibia 39.2737
lfoot -23.2684 0.864334
ltoes -4.54969
10
root 17.2956 18.1253 0.388682 -67.8909 -88.3214 81.2068
lowerback -11.07 0.418497 -0.367117
upperback 0.86061 0.565458 0.459008
thorax 7.12215 0.248953 0.786857
lowerneck -14.8945 -1.22564 -4.96585
upperneck 20.5973 -0.982842 1.36623
head 8.94757 -0.776986 1.16313
rclavicle -4.07509e-015 6.75868e-015
rhumerus -34.9606 -8.77796 -84.2986
rradius 35.7586
rwrist 15.4678
rhand -21.8588 33.2399
rfingers 7.12502
rthumb 4.54513 3.30865
lclavicle -4.07509e-015 6.75868e-015
lhumerus -28.8062 7.24578 82.8153
lradius 33.4552
lwrist 12.0973
lhand -11.5862 32.987
lfingers 7.12502
lthumb 14.4557 62.4635
rfemur -26.8103 8.27145 14.4774
rtibia 39.5451
rfoot -12.5547 12.4589
rtoes 37.6154
lfemur -28.2428 0.838181 -23.385
ltibia 39.2021
lfoot -23.3869 0.934641
ltoes -4.37719
11
root 17.2849 18.1238 0.410156 -69.5767 -88.2453 82.8445
lowerback -11.2346 0.417487 -0.596989
upperback 0.891442 0.599571 0.40834
thorax 7.24646 0.257073 0.871017
lowerneck -14.8782 -1.24403 -4.89614
upperneck 20.4285 -0.999798 1.27285
head 8.88652 -0.785432 1.11737
rclavicle -4.27387e-015 1.98785e-015
rhumerus -34.9152 -8.49468 -84.373
rradius 35.7771
rwrist 15.595
rhand -21.815 33.2338
rfingers 7.12502
rthumb 4.58738 3.30348
lclavicle -4.27387e-015 1.98785e-015
lhumerus -28.935 7.17745 83.4967
lradius 33.3901
lwrist 12.2132
lhand -11.8147 33.0818
lfingers 7.12502
lthumb 14.2356 62.5739
rfemur -26.6498 8.19752 14.3257
rtibia 39.4135
rfoot -12.5033 12.4923
rtoes 37.5845
lfemur -28.096 0.604446 -23.5253
ltibia 39.1383
lfoot -23.5502 1.01765
ltoes -3.91489
12
root 17.2724 18.1222 0.430316 -71.3945 -88.277 84.5812
lowerback -11.3269 0.463993 -0.672814
upperback 0.833723 0.675975 0.347858
thorax 7.23583 0.292596 0.863732
lowerneck -14.6891 -1.25513 -4.87065
upperneck 20.3546 -1.04242 1.31429
head 8.8277 -0.799009 1.12245
rclavicle 1.04362e-015 3.18055e-015
rhumerus -35.0244 -8.32341 -84.419
rradius 35.7668
rwrist 15.6115
rhand -21.8093 33.2953
rfingers 7.12502
rthumb 4.59289 3.36508
lclavicle 1.04362e-015 3.18055e-015
lhumerus -29.2902 7.0084 84.0876
lradius 33.3401
lwrist 12.3402
lhand -12.0399 33.0281
lfingers 7.12502
lthumb 14.0185 62.5353
rfemur -26.4461 8.24825 14.2829
rtibia 39.278
rfoot -12.5478 12.5538
rtoes 37.6567
lfemur -27.9047 0.277699 -23.5314
ltibia 39.0778
lfoot -23.8242 1.20027
ltoes -3.50957
13
root 17.2586 18.1223 0.448673 -71.7503 -88.4171 84.8087
lowerback -11.3923 0.444709 -0.659106
upperback 0.820822 0.648376 0.348466
thorax 7.25991 0.279385 0.852499
lowerneck -14.6937 -1.20391 -4.91677
upperneck 20.4167 -0.992459 1.45078
head 8.84863 -0.766098 1.18265
rclavicle -1.04362e-015 -1.07344e-014
rhumerus -35.0046 -7.99208 -84.4993
rradius 35.7036
rwrist 15.571
rhand -21.5687 33.1909
rfingers 7.12502
rthumb 4.82521 3.26589
lclavicle -1.04362e-015 -1.07344e-014
lhumerus -29.6569 6.91901 84.6324
lradius 33.4631
lwrist 12.7175
lhand -12.331 33.1101
lfingers 7.12502
lthumb 13.738 62.6366
rfemur -26.1854 8.35861 14.3708
rtibia 39.1428
rfoot -12.6584 12.594
rtoes 37.8935
lfemur -27.6756 0.0200378 -23.415
ltibia 39.0222
lfoot -24.0689 1.45413
ltoes -3.66486
